<?xml version="1.0" encoding="utf-8"?>
<!-- Generator: Adobe Illustrator 18.1.1, SVG Export Plug-In . SVG Version: 6.00 Build 0)  -->
<svg version="1.1" id="Layer_1" xmlns="http://www.w3.org/2000/svg" xmlns:xlink="http://www.w3.org/1999/xlink" x="0px" y="0px"
	 viewBox="0 0 200 100" enable-background="new 0 0 200 100" xml:space="preserve">
<rect fill="#58595B" width="50" height="50"/>
<g>
	<path fill="#FFFFFF" d="M17,26v-5.5h4.1v-1.4c0-1,0-2,0-3.3c0-0.9,0.2-1.8,0.5-2.7c0.3-0.9,0.8-1.6,1.4-2.3
		c0.7-0.7,1.5-1.2,2.5-1.6c1-0.4,2.2-0.6,3.5-0.6c1.1,0,2,0,2.8,0.1L32.9,9l-0.1,5.3l-1.1,0c-0.7,0-1.6,0-2.5,0
		c-1,0-1.6,0.2-1.9,0.6c-0.3,0.4-0.4,1-0.4,1.7c0,0.1,0,0.1,0,0.2v0.1c0,0.2,0,0.6,0,1.1c0,0.6,0,1.4,0,2.5H33L32.7,26h-5.8v15.2
		h-5.7V26H17z"/>
</g>
<rect x="150" fill="#58595B" width="50" height="50"/>
<g>
	<path fill="#FFFFFF" d="M160.3,13.9c0-0.5,0.1-0.9,0.3-1.4c0.2-0.4,0.4-0.8,0.8-1.2c0.4-0.3,0.8-0.6,1.2-0.8
		c0.4-0.2,0.9-0.3,1.4-0.3c0.5,0,1,0.1,1.4,0.3c0.4,0.2,0.8,0.4,1.2,0.8c0.3,0.3,0.6,0.7,0.8,1.2c0.2,0.4,0.3,0.9,0.3,1.4
		c0,0.5-0.1,1-0.3,1.4c-0.2,0.4-0.4,0.8-0.8,1.2c-0.4,0.3-0.8,0.6-1.2,0.8c-0.4,0.2-0.9,0.3-1.4,0.3c-0.5,0-1-0.1-1.4-0.3
		c-0.4-0.2-0.8-0.4-1.2-0.8c-0.3-0.3-0.6-0.7-0.8-1.2C160.3,14.9,160.3,14.4,160.3,13.9z M160.5,39V20.7c0-0.1,0-0.2,0.1-0.3
		c0-0.1,0.1-0.2,0.1-0.2c0.1-0.1,0.2-0.1,0.2-0.2c0.1,0,0.2-0.1,0.3-0.1h5.2c0.1,0,0.2,0,0.3,0.1c0.1,0,0.2,0.1,0.2,0.2
		c0.1,0.1,0.1,0.2,0.1,0.2c0,0.1,0.1,0.2,0.1,0.3V39c0,0.1,0,0.2-0.1,0.3c0,0.1-0.1,0.2-0.1,0.2c-0.1,0.1-0.2,0.1-0.2,0.2
		c-0.1,0-0.2,0-0.3,0h-5.2c-0.1,0-0.2,0-0.3,0c-0.1,0-0.2-0.1-0.2-0.2c-0.1-0.1-0.1-0.2-0.1-0.2C160.5,39.1,160.5,39,160.5,39z
		 M170.1,39V20.7c0-0.1,0-0.2,0.1-0.3c0-0.1,0.1-0.2,0.2-0.2c0.1-0.1,0.2-0.1,0.2-0.2c0.1,0,0.2-0.1,0.3-0.1h5.1c0.1,0,0.2,0,0.3,0
		c0.1,0,0.1,0,0.2,0.1c0.1,0,0.1,0.1,0.1,0.1c0,0.1,0.1,0.1,0.1,0.2c0,0.1,0,0.2,0,0.2c0,0.1,0,0.1,0,0.1c0,0,0,0.1,0,0.1
		s0,0.2,0,0.3c0.7-0.6,1.4-1,2.3-1.3c0.9-0.3,1.9-0.4,3-0.4c1.2,0,2.3,0.2,3.3,0.5c1,0.3,1.8,0.7,2.5,1.3c0.7,0.6,1.2,1.4,1.6,2.2
		c0.3,0.9,0.5,1.9,0.5,3.1v12.3c0,0.1,0,0.2-0.1,0.3c0,0.1-0.1,0.2-0.2,0.2c-0.1,0.1-0.2,0.1-0.2,0.2s-0.2,0-0.3,0h-5.4
		c-0.1,0-0.2,0-0.3,0c-0.1,0-0.2-0.1-0.2-0.2c-0.1-0.1-0.1-0.2-0.2-0.2c0-0.1-0.1-0.2-0.1-0.3V27.6c0-0.5,0-1-0.1-1.3
		c-0.1-0.4-0.2-0.7-0.4-0.9c-0.2-0.2-0.5-0.4-0.8-0.5s-0.8-0.2-1.3-0.2c-0.6,0-1.1,0.1-1.6,0.3c-0.4,0.2-0.8,0.5-1,0.8
		c-0.3,0.4-0.5,0.8-0.6,1.3c-0.1,0.5-0.2,1.1-0.2,1.8v10.1c0,0.1,0,0.2-0.1,0.3c0,0.1-0.1,0.2-0.2,0.2c-0.1,0.1-0.1,0.1-0.2,0.2
		c-0.1,0-0.2,0-0.3,0h-5.2c-0.1,0-0.2,0-0.3,0s-0.2-0.1-0.2-0.2c-0.1-0.1-0.1-0.2-0.2-0.2C170.1,39.1,170.1,39,170.1,39z"/>
</g>
<rect x="100" fill="#58595B" width="50" height="50"/>
<g>
	<path fill="#FFFFFF" d="M108.5,35.4c0.3,0,0.5,0.1,0.8,0.1s0.5,0,0.8,0c0.8,0,1.6-0.1,2.3-0.2s1.5-0.3,2.2-0.6
		c0.7-0.2,1.4-0.5,2-0.9s1.3-0.8,1.9-1.2c-0.7,0-1.4-0.1-2.1-0.4s-1.3-0.6-1.9-1c-0.5-0.4-1-0.9-1.4-1.5s-0.7-1.2-0.9-1.9
		c0.2,0,0.4,0.1,0.6,0.1s0.4,0,0.6,0c0.3,0,0.6,0,0.9-0.1s0.6-0.1,0.9-0.2c-0.8-0.2-1.5-0.5-2.2-0.9s-1.2-0.9-1.7-1.5
		c-0.5-0.6-0.8-1.3-1.1-2s-0.4-1.5-0.4-2.3c0,0,0,0,0,0s0,0,0,0c0.5,0.3,0.9,0.5,1.5,0.6s1.1,0.2,1.6,0.2c-0.9-0.6-1.6-1.4-2.2-2.4
		s-0.8-2.1-0.8-3.3c0-0.6,0.1-1.2,0.2-1.8s0.4-1.1,0.7-1.6c0.8,1,1.8,1.9,2.8,2.8s2.1,1.6,3.3,2.2c1.2,0.6,2.4,1.1,3.8,1.5
		s2.7,0.6,4.1,0.6c0-0.2-0.1-0.5-0.1-0.7s0-0.5,0-0.8c0-0.9,0.2-1.8,0.5-2.6s0.8-1.5,1.4-2.1c0.6-0.6,1.3-1.1,2.2-1.5
		s1.7-0.5,2.6-0.5c1,0,1.9,0.2,2.7,0.6s1.6,0.9,2.2,1.6c0.8-0.2,1.5-0.4,2.2-0.6s1.4-0.6,2.1-1c-0.3,0.8-0.6,1.5-1.2,2.1
		s-1.1,1.2-1.8,1.6c0.7-0.1,1.4-0.2,2-0.4s1.3-0.4,1.9-0.7c-0.5,0.7-1,1.3-1.5,1.9s-1.2,1.1-1.9,1.6c0,0.1,0,0.3,0,0.4s0,0.3,0,0.5
		c0,2.2-0.4,4.5-1.3,6.8s-2.1,4.4-3.7,6.2s-3.6,3.4-6,4.5s-5.2,1.8-8.3,1.8c-0.9,0-1.9-0.1-2.8-0.2s-1.8-0.3-2.7-0.6
		c-0.9-0.3-1.7-0.6-2.5-1S109.3,35.8,108.5,35.4z"/>
</g>
<rect x="50" fill="#58595B" width="50" height="50"/>
<g>
	<path fill="#FFFFFF" d="M57.8,30.3v-4h0.7v4H57.8z M59.5,31.7v-6.4h0.7v6.4H59.5z M60.9,32v-7.4h0.7V32H60.9z M62.2,32.3v-7.4h0.7
		v7.4H62.2z M63.9,32.3v-9.7h0.7v9.7H63.9z M65.2,32.3V21.3h0.7v11.1H65.2z M66.9,32.3V20.6h0.7v11.8H66.9z M68.2,32.3V20.2h0.7
		v12.1H68.2z M69.9,32.3V20.6h0.7v11.8H69.9z M71.3,32.3V20.9H72v11.4H71.3z M72.7,32.3V19.6h0.7v12.8H72.7z M74.4,32.3V18.6H75
		v13.8H74.4z M75.4,31.8V18.6c0-0.1,0-0.2,0.1-0.3c0.1-0.1,0.2-0.1,0.4-0.2c0.4-0.2,0.8-0.3,1.3-0.4c0.5-0.1,0.9-0.1,1.4-0.1
		c1,0,1.9,0.2,2.8,0.5c0.9,0.3,1.7,0.8,2.3,1.4c0.7,0.6,1.2,1.3,1.7,2.1c0.4,0.8,0.7,1.7,0.8,2.6c0.3-0.1,0.5-0.2,0.8-0.2
		c0.3-0.1,0.6-0.1,0.9-0.1c1.2,0,2.2,0.4,3,1.2s1.3,1.8,1.3,2.9c0,1.1-0.4,2.1-1.2,2.9c-0.8,0.8-1.8,1.2-3.1,1.2H86
		c-1.3,0-2.6,0-4.1,0c-1.5,0-2.9,0-4.1,0h-1.9c-0.1,0-0.3-0.1-0.4-0.2S75.4,31.9,75.4,31.8z"/>
</g>
<rect y="50" fill="#21409A" width="50" height="50"/>
<g>
	<path fill="#FFFFFF" d="M17,76v-5.5h4.1v-1.4c0-1,0-2,0-3.3c0-0.9,0.2-1.8,0.5-2.7c0.3-0.9,0.8-1.6,1.4-2.3
		c0.7-0.7,1.5-1.2,2.5-1.6c1-0.4,2.2-0.6,3.5-0.6c1.1,0,2,0,2.8,0.1l1.1,0.1l-0.1,5.3l-1.1,0c-0.7,0-1.6,0-2.5,0
		c-1,0-1.6,0.2-1.9,0.6c-0.3,0.4-0.4,1-0.4,1.7c0,0.1,0,0.1,0,0.2v0.1c0,0.2,0,0.6,0,1.1c0,0.6,0,1.4,0,2.5H33L32.7,76h-5.8v15.2
		h-5.7V76H17z"/>
</g>
<rect x="150" y="50" fill="#1C75BC" width="50" height="50"/>
<g>
	<path fill="#FFFFFF" d="M160.3,63.9c0-0.5,0.1-0.9,0.3-1.4c0.2-0.4,0.4-0.8,0.8-1.2c0.4-0.3,0.8-0.6,1.2-0.8
		c0.4-0.2,0.9-0.3,1.4-0.3c0.5,0,1,0.1,1.4,0.3c0.4,0.2,0.8,0.4,1.2,0.8c0.3,0.3,0.6,0.7,0.8,1.2c0.2,0.4,0.3,0.9,0.3,1.4
		c0,0.5-0.1,1-0.3,1.4c-0.2,0.4-0.4,0.8-0.8,1.2c-0.4,0.3-0.8,0.6-1.2,0.8c-0.4,0.2-0.9,0.3-1.4,0.3c-0.5,0-1-0.1-1.4-0.3
		c-0.4-0.2-0.8-0.4-1.2-0.8c-0.3-0.3-0.6-0.7-0.8-1.2C160.3,64.9,160.3,64.4,160.3,63.9z M160.5,89V70.7c0-0.1,0-0.2,0.1-0.3
		c0-0.1,0.1-0.2,0.1-0.2c0.1-0.1,0.2-0.1,0.2-0.2c0.1,0,0.2-0.1,0.3-0.1h5.2c0.1,0,0.2,0,0.3,0.1c0.1,0,0.2,0.1,0.2,0.2
		c0.1,0.1,0.1,0.2,0.1,0.2c0,0.1,0.1,0.2,0.1,0.3V89c0,0.1,0,0.2-0.1,0.3c0,0.1-0.1,0.2-0.1,0.2c-0.1,0.1-0.2,0.1-0.2,0.2
		c-0.1,0-0.2,0-0.3,0h-5.2c-0.1,0-0.2,0-0.3,0c-0.1,0-0.2-0.1-0.2-0.2c-0.1-0.1-0.1-0.2-0.1-0.2C160.5,89.1,160.5,89,160.5,89z
		 M170.1,89V70.7c0-0.1,0-0.2,0.1-0.3c0-0.1,0.1-0.2,0.2-0.2c0.1-0.1,0.2-0.1,0.2-0.2c0.1,0,0.2-0.1,0.3-0.1h5.1c0.1,0,0.2,0,0.3,0
		c0.1,0,0.1,0,0.2,0.1c0.1,0,0.1,0.1,0.1,0.1c0,0.1,0.1,0.1,0.1,0.2c0,0.1,0,0.2,0,0.2c0,0.1,0,0.1,0,0.1c0,0,0,0.1,0,0.1
		s0,0.2,0,0.3c0.7-0.6,1.4-1,2.3-1.3c0.9-0.3,1.9-0.4,3-0.4c1.2,0,2.3,0.2,3.3,0.5c1,0.3,1.8,0.7,2.5,1.3c0.7,0.6,1.2,1.4,1.6,2.2
		c0.3,0.9,0.5,1.9,0.5,3.1v12.3c0,0.1,0,0.2-0.1,0.3c0,0.1-0.1,0.2-0.2,0.2c-0.1,0.1-0.2,0.1-0.2,0.2s-0.2,0-0.3,0h-5.4
		c-0.1,0-0.2,0-0.3,0c-0.1,0-0.2-0.1-0.2-0.2c-0.1-0.1-0.1-0.2-0.2-0.2c0-0.1-0.1-0.2-0.1-0.3V77.6c0-0.5,0-1-0.1-1.3
		c-0.1-0.4-0.2-0.7-0.4-0.9c-0.2-0.2-0.5-0.4-0.8-0.5s-0.8-0.2-1.3-0.2c-0.6,0-1.1,0.1-1.6,0.3c-0.4,0.2-0.8,0.5-1,0.8
		c-0.3,0.4-0.5,0.8-0.6,1.3c-0.1,0.5-0.2,1.1-0.2,1.8v10.1c0,0.1,0,0.2-0.1,0.3c0,0.1-0.1,0.2-0.2,0.2c-0.1,0.1-0.1,0.1-0.2,0.2
		c-0.1,0-0.2,0-0.3,0h-5.2c-0.1,0-0.2,0-0.3,0s-0.2-0.1-0.2-0.2c-0.1-0.1-0.1-0.2-0.2-0.2C170.1,89.1,170.1,89,170.1,89z"/>
</g>
<rect x="100" y="50" fill="#27AAE1" width="50" height="50"/>
<g>
	<path fill="#FFFFFF" d="M108.5,85.4c0.3,0,0.5,0.1,0.8,0.1s0.5,0,0.8,0c0.8,0,1.6-0.1,2.3-0.2s1.5-0.3,2.2-0.6
		c0.7-0.2,1.4-0.5,2-0.9s1.3-0.8,1.9-1.2c-0.7,0-1.4-0.1-2.1-0.4s-1.3-0.6-1.9-1c-0.5-0.4-1-0.9-1.4-1.5s-0.7-1.2-0.9-1.9
		c0.2,0,0.4,0.1,0.6,0.1s0.4,0,0.6,0c0.3,0,0.6,0,0.9-0.1s0.6-0.1,0.9-0.2c-0.8-0.2-1.5-0.5-2.2-0.9s-1.2-0.9-1.7-1.5
		c-0.5-0.6-0.8-1.3-1.1-2s-0.4-1.5-0.4-2.3c0,0,0,0,0,0s0,0,0,0c0.5,0.3,0.9,0.5,1.5,0.6s1.1,0.2,1.6,0.2c-0.9-0.6-1.6-1.4-2.2-2.4
		s-0.8-2.1-0.8-3.3c0-0.6,0.1-1.2,0.2-1.8s0.4-1.1,0.7-1.6c0.8,1,1.8,1.9,2.8,2.8s2.1,1.6,3.3,2.2c1.2,0.6,2.4,1.1,3.8,1.5
		s2.7,0.6,4.1,0.6c0-0.2-0.1-0.5-0.1-0.7s0-0.5,0-0.8c0-0.9,0.2-1.8,0.5-2.6s0.8-1.5,1.4-2.1c0.6-0.6,1.3-1.1,2.2-1.5
		s1.7-0.5,2.6-0.5c1,0,1.9,0.2,2.7,0.6s1.6,0.9,2.2,1.6c0.8-0.2,1.5-0.4,2.2-0.6s1.4-0.6,2.1-1c-0.3,0.8-0.6,1.5-1.2,2.1
		s-1.1,1.2-1.8,1.6c0.7-0.1,1.4-0.2,2-0.4s1.3-0.4,1.9-0.7c-0.5,0.7-1,1.3-1.5,1.9s-1.2,1.1-1.9,1.6c0,0.1,0,0.3,0,0.4s0,0.3,0,0.5
		c0,2.2-0.4,4.5-1.3,6.8s-2.1,4.4-3.7,6.2s-3.6,3.4-6,4.5s-5.2,1.8-8.3,1.8c-0.9,0-1.9-0.1-2.8-0.2s-1.8-0.3-2.7-0.6
		c-0.9-0.3-1.7-0.6-2.5-1S109.3,85.8,108.5,85.4z"/>
</g>
<rect x="50" y="50" fill="#F26522" width="50" height="50"/>
<g>
	<path fill="#FFFFFF" d="M57.8,80.3v-4h0.7v4H57.8z M59.5,81.7v-6.4h0.7v6.4H59.5z M60.9,82v-7.4h0.7V82H60.9z M62.2,82.3v-7.4h0.7
		v7.4H62.2z M63.9,82.3v-9.7h0.7v9.7H63.9z M65.2,82.3V71.3h0.7v11.1H65.2z M66.9,82.3V70.6h0.7v11.8H66.9z M68.2,82.3V70.2h0.7
		v12.1H68.2z M69.9,82.3V70.6h0.7v11.8H69.9z M71.3,82.3V70.9H72v11.4H71.3z M72.7,82.3V69.6h0.7v12.8H72.7z M74.4,82.3V68.6H75
		v13.8H74.4z M75.4,81.8V68.6c0-0.1,0-0.2,0.1-0.3c0.1-0.1,0.2-0.1,0.4-0.2c0.4-0.2,0.8-0.3,1.3-0.4c0.5-0.1,0.9-0.1,1.4-0.1
		c1,0,1.9,0.2,2.8,0.5c0.9,0.3,1.7,0.8,2.3,1.4c0.7,0.6,1.2,1.3,1.7,2.1c0.4,0.8,0.7,1.7,0.8,2.6c0.3-0.1,0.5-0.2,0.8-0.2
		c0.3-0.1,0.6-0.1,0.9-0.1c1.2,0,2.2,0.4,3,1.2s1.3,1.8,1.3,2.9c0,1.1-0.4,2.1-1.2,2.9c-0.8,0.8-1.8,1.2-3.1,1.2H86
		c-1.3,0-2.6,0-4.1,0c-1.5,0-2.9,0-4.1,0h-1.9c-0.1,0-0.3-0.1-0.4-0.2S75.4,81.9,75.4,81.8z"/>
</g>
</svg>
